<mxfile host="www.draw.io" modified="2020-03-17T09:42:48.806Z" agent="Mozilla/5.0 (Windows NT 10.0; Win64; x64) AppleWebKit/537.36 (KHTML, like Gecko) Chrome/80.0.3987.122 Safari/537.36" etag="BuYTBPVU9Y0Ri1CSQflM" version="12.8.5" type="github">
  <diagram id="C5RBs43oDa-KdzZeNtuy" name="Page-1">
    <mxGraphModel dx="1248" dy="1796" grid="1" gridSize="10" guides="1" tooltips="1" connect="1" arrows="1" fold="1" page="1" pageScale="1" pageWidth="827" pageHeight="1169" math="0" shadow="0">
      <root>
        <mxCell id="WIyWlLk6GJQsqaUBKTNV-0" />
        <mxCell id="WIyWlLk6GJQsqaUBKTNV-1" parent="WIyWlLk6GJQsqaUBKTNV-0" />
        <mxCell id="WIyWlLk6GJQsqaUBKTNV-3" value="potencjalny lead" style="rounded=1;whiteSpace=wrap;html=1;fontSize=12;glass=0;strokeWidth=1;shadow=0;" parent="WIyWlLk6GJQsqaUBKTNV-1" vertex="1">
          <mxGeometry x="30" y="160" width="120" height="40" as="geometry" />
        </mxCell>
        <mxCell id="OFxlPEd7bwp5kQd3wbr0-0" value="policz wartość oczekiwana z akcji" style="rounded=1;whiteSpace=wrap;html=1;fontSize=12;glass=0;strokeWidth=1;shadow=0;" vertex="1" parent="WIyWlLk6GJQsqaUBKTNV-1">
          <mxGeometry x="200" y="160" width="120" height="40" as="geometry" />
        </mxCell>
        <mxCell id="OFxlPEd7bwp5kQd3wbr0-1" value="" style="endArrow=classic;html=1;exitX=1;exitY=0.75;exitDx=0;exitDy=0;entryX=0;entryY=0.75;entryDx=0;entryDy=0;" edge="1" parent="WIyWlLk6GJQsqaUBKTNV-1" source="WIyWlLk6GJQsqaUBKTNV-3" target="OFxlPEd7bwp5kQd3wbr0-0">
          <mxGeometry width="50" height="50" relative="1" as="geometry">
            <mxPoint x="390" y="350" as="sourcePoint" />
            <mxPoint x="440" y="300" as="targetPoint" />
          </mxGeometry>
        </mxCell>
        <mxCell id="OFxlPEd7bwp5kQd3wbr0-3" value="prawdopodobieństwo" style="shape=tape;whiteSpace=wrap;html=1;" vertex="1" parent="WIyWlLk6GJQsqaUBKTNV-1">
          <mxGeometry x="200" y="204" width="120" height="50" as="geometry" />
        </mxCell>
        <mxCell id="OFxlPEd7bwp5kQd3wbr0-4" value="produkt" style="shape=tape;whiteSpace=wrap;html=1;" vertex="1" parent="WIyWlLk6GJQsqaUBKTNV-1">
          <mxGeometry x="200" y="254" width="120" height="50" as="geometry" />
        </mxCell>
        <mxCell id="OFxlPEd7bwp5kQd3wbr0-5" value="cltv dla produktów" style="shape=tape;whiteSpace=wrap;html=1;" vertex="1" parent="WIyWlLk6GJQsqaUBKTNV-1">
          <mxGeometry x="200" y="310" width="120" height="50" as="geometry" />
        </mxCell>
        <mxCell id="OFxlPEd7bwp5kQd3wbr0-6" value="powiaz dni planowanej kampanii z wartością ocz." style="rounded=1;whiteSpace=wrap;html=1;fontSize=12;glass=0;strokeWidth=1;shadow=0;" vertex="1" parent="WIyWlLk6GJQsqaUBKTNV-1">
          <mxGeometry x="380" y="160" width="120" height="40" as="geometry" />
        </mxCell>
        <mxCell id="OFxlPEd7bwp5kQd3wbr0-7" value="dni kampanii" style="shape=tape;whiteSpace=wrap;html=1;" vertex="1" parent="WIyWlLk6GJQsqaUBKTNV-1">
          <mxGeometry x="380" y="204" width="120" height="50" as="geometry" />
        </mxCell>
        <mxCell id="OFxlPEd7bwp5kQd3wbr0-9" value="" style="endArrow=classic;html=1;exitX=1;exitY=0.75;exitDx=0;exitDy=0;entryX=0;entryY=0.75;entryDx=0;entryDy=0;" edge="1" parent="WIyWlLk6GJQsqaUBKTNV-1" source="OFxlPEd7bwp5kQd3wbr0-0" target="OFxlPEd7bwp5kQd3wbr0-6">
          <mxGeometry width="50" height="50" relative="1" as="geometry">
            <mxPoint x="330" y="179.5" as="sourcePoint" />
            <mxPoint x="380" y="179.5" as="targetPoint" />
          </mxGeometry>
        </mxCell>
        <mxCell id="OFxlPEd7bwp5kQd3wbr0-10" value="sprawdż dni planowanej kampanii w tabeli z akcjami" style="rounded=1;whiteSpace=wrap;html=1;fontSize=12;glass=0;strokeWidth=1;shadow=0;" vertex="1" parent="WIyWlLk6GJQsqaUBKTNV-1">
          <mxGeometry x="560" y="160" width="120" height="40" as="geometry" />
        </mxCell>
        <mxCell id="OFxlPEd7bwp5kQd3wbr0-11" value="" style="endArrow=classic;html=1;exitX=1;exitY=1;exitDx=0;exitDy=0;entryX=0;entryY=0.75;entryDx=0;entryDy=0;" edge="1" parent="WIyWlLk6GJQsqaUBKTNV-1" target="OFxlPEd7bwp5kQd3wbr0-10" source="OFxlPEd7bwp5kQd3wbr0-6">
          <mxGeometry width="50" height="50" relative="1" as="geometry">
            <mxPoint x="500" y="190" as="sourcePoint" />
            <mxPoint x="560" y="179.5" as="targetPoint" />
          </mxGeometry>
        </mxCell>
        <mxCell id="OFxlPEd7bwp5kQd3wbr0-12" value="tabela z oczekiwanymi wartościami" style="shape=tape;whiteSpace=wrap;html=1;fillColor=#ffe6cc;strokeColor=#d79b00;" vertex="1" parent="WIyWlLk6GJQsqaUBKTNV-1">
          <mxGeometry x="560" y="204" width="120" height="50" as="geometry" />
        </mxCell>
        <mxCell id="OFxlPEd7bwp5kQd3wbr0-14" value="CLTV" style="shape=hexagon;perimeter=hexagonPerimeter2;whiteSpace=wrap;html=1;" vertex="1" parent="WIyWlLk6GJQsqaUBKTNV-1">
          <mxGeometry x="200" y="130" width="120" height="20" as="geometry" />
        </mxCell>
        <mxCell id="OFxlPEd7bwp5kQd3wbr0-15" value="dni + wartość" style="shape=hexagon;perimeter=hexagonPerimeter2;whiteSpace=wrap;html=1;" vertex="1" parent="WIyWlLk6GJQsqaUBKTNV-1">
          <mxGeometry x="380" y="130" width="120" height="20" as="geometry" />
        </mxCell>
        <mxCell id="OFxlPEd7bwp5kQd3wbr0-16" value="liczba konfliktów" style="shape=hexagon;perimeter=hexagonPerimeter2;whiteSpace=wrap;html=1;" vertex="1" parent="WIyWlLk6GJQsqaUBKTNV-1">
          <mxGeometry x="560" y="130" width="120" height="20" as="geometry" />
        </mxCell>
        <mxCell id="OFxlPEd7bwp5kQd3wbr0-17" value="liczba wolnych przestrzeni" style="shape=hexagon;perimeter=hexagonPerimeter2;whiteSpace=wrap;html=1;" vertex="1" parent="WIyWlLk6GJQsqaUBKTNV-1">
          <mxGeometry x="560" y="100" width="120" height="20" as="geometry" />
        </mxCell>
        <mxCell id="OFxlPEd7bwp5kQd3wbr0-18" value="analizuj konflikty" style="rounded=1;whiteSpace=wrap;html=1;fontSize=12;glass=0;strokeWidth=1;shadow=0;" vertex="1" parent="WIyWlLk6GJQsqaUBKTNV-1">
          <mxGeometry x="740" y="160" width="120" height="40" as="geometry" />
        </mxCell>
        <mxCell id="OFxlPEd7bwp5kQd3wbr0-19" value="" style="endArrow=classic;html=1;entryX=0;entryY=0.75;entryDx=0;entryDy=0;" edge="1" parent="WIyWlLk6GJQsqaUBKTNV-1" target="OFxlPEd7bwp5kQd3wbr0-18">
          <mxGeometry width="50" height="50" relative="1" as="geometry">
            <mxPoint x="680" y="190" as="sourcePoint" />
            <mxPoint x="740" y="179.5" as="targetPoint" />
          </mxGeometry>
        </mxCell>
        <mxCell id="OFxlPEd7bwp5kQd3wbr0-20" value="konflikty" style="shape=tape;whiteSpace=wrap;html=1;" vertex="1" parent="WIyWlLk6GJQsqaUBKTNV-1">
          <mxGeometry x="740" y="204" width="120" height="50" as="geometry" />
        </mxCell>
        <mxCell id="OFxlPEd7bwp5kQd3wbr0-21" value="konflikty [nazwa_akcji, wartość oczekiwana , dzień, czy przebijalny]" style="shape=hexagon;perimeter=hexagonPerimeter2;whiteSpace=wrap;html=1;" vertex="1" parent="WIyWlLk6GJQsqaUBKTNV-1">
          <mxGeometry x="560" y="-40" width="120" height="120" as="geometry" />
        </mxCell>
        <mxCell id="OFxlPEd7bwp5kQd3wbr0-22" value="liczba przebitych per kampania" style="shape=hexagon;perimeter=hexagonPerimeter2;whiteSpace=wrap;html=1;" vertex="1" parent="WIyWlLk6GJQsqaUBKTNV-1">
          <mxGeometry x="740" y="130" width="120" height="20" as="geometry" />
        </mxCell>
        <mxCell id="OFxlPEd7bwp5kQd3wbr0-23" value="wartość oczekiwana przebitych" style="shape=hexagon;perimeter=hexagonPerimeter2;whiteSpace=wrap;html=1;" vertex="1" parent="WIyWlLk6GJQsqaUBKTNV-1">
          <mxGeometry x="740" y="100" width="120" height="20" as="geometry" />
        </mxCell>
        <mxCell id="OFxlPEd7bwp5kQd3wbr0-24" value="wartość oczekiwana przebijajacych" style="shape=hexagon;perimeter=hexagonPerimeter2;whiteSpace=wrap;html=1;" vertex="1" parent="WIyWlLk6GJQsqaUBKTNV-1">
          <mxGeometry x="740" y="70" width="120" height="20" as="geometry" />
        </mxCell>
        <mxCell id="OFxlPEd7bwp5kQd3wbr0-25" value="wartość brutto i netto kampanii" style="shape=hexagon;perimeter=hexagonPerimeter2;whiteSpace=wrap;html=1;" vertex="1" parent="WIyWlLk6GJQsqaUBKTNV-1">
          <mxGeometry x="740" y="40" width="120" height="20" as="geometry" />
        </mxCell>
      </root>
    </mxGraphModel>
  </diagram>
</mxfile>
